<?xml version="1.0" standalone="no"?>
<!DOCTYPE svg PUBLIC "-//W3C//DTD SVG 20010904//EN"
 "http://www.w3.org/TR/2001/REC-SVG-20010904/DTD/svg10.dtd">
<svg version="1.0" xmlns="http://www.w3.org/2000/svg"
 width="904.000000pt" height="904.000000pt" viewBox="0 0 904.000000 904.000000"
 preserveAspectRatio="xMidYMid meet">
<metadata>
Created by potrace 1.11, written by Peter Selinger 2001-2013
</metadata>
<g transform="translate(0.000000,904.000000) scale(0.100000,-0.100000)"
fill="#000000" stroke="none">
<path d="M0 4453 c0 -548 2 -994 4 -992 2 2 227 451 500 997 l496 992 -500 0
-500 0 0 -997z"/>
<path d="M1900 4450 l500 -1000 300 0 300 0 -500 1000 -500 1000 -300 0 -300
0 500 -1000z"/>
<path d="M3860 4450 l-500 -1000 300 0 300 0 500 1000 500 1000 -300 0 -300 0
-500 -1000z"/>
<path d="M6340 5250 l-100 -200 -390 0 -390 0 -100 -200 -100 -200 390 0 390
0 -100 -200 -100 -200 -390 0 -390 0 -100 -200 -100 -200 390 0 390 0 -100
-200 -100 -200 300 0 300 0 500 1000 500 1000 -300 0 -300 0 -100 -200z"/>
<path d="M8537 4445 l-497 -995 500 0 500 0 0 995 c0 547 -1 995 -3 995 -1 0
-226 -448 -500 -995z"/>
<path d="M2957 4855 c109 -217 200 -395 203 -395 3 0 94 178 203 395 l197 395
-400 0 -400 0 197 -395z"/>
<path d="M7637 4855 c109 -217 200 -395 203 -395 3 0 94 178 203 395 l197 395
-400 0 -400 0 197 -395z"/>
<path d="M997 4045 l-197 -395 400 0 400 0 -197 395 c-109 217 -200 395 -203
395 -3 0 -94 -178 -203 -395z"/>
<path d="M7037 4045 l-197 -395 400 0 400 0 -197 395 c-109 217 -200 395 -203
395 -3 0 -94 -178 -203 -395z"/>
<path d="M5340 1381 c0 -5 5 -13 10 -16 6 -3 10 -2 10 4 0 5 -4 13 -10 16 -5
3 -10 2 -10 -4z"/>
</g>
</svg>
