<?xml version="1.0" encoding="UTF-8"?>
<svg width="841px" height="698px" viewBox="0 0 841 698" version="1.1" xmlns="http://www.w3.org/2000/svg" xmlns:xlink="http://www.w3.org/1999/xlink">
    <title>Slice</title>
    <defs>
        <path d="M140.84,674.844 C162.881,674.844 178.76,665.838 187.529,656.595 L176.153,642.138 L175.335475,642.744266 C166.319755,649.409349 156.502912,655.884 141.551,655.884 C116.192,655.884 96.521,637.398 96.521,590.235 C96.521,540.939 117.14,524.349 141.788,524.349 C153.164,524.349 163.118,528.141 173.309,536.436 L185.633,521.979 C172.598,511.551 160.985,505.863 140.366,505.863 C103.394,505.863 72.584,535.014 72.584,590.235 C72.584,645.219 101.261,674.844 140.84,674.844 Z M302.948,672 L305.555,652.329 L238.484,652.329 L238.484,508.707 L215.969,508.707 L215.969,672 L302.948,672 Z M389.927,674.844 C430.928,674.844 458.894,644.508 458.894,590.472 C458.894,535.488 430.928,505.863 389.927,505.863 C349.163,505.863 320.96,536.91 320.96,590.709 C320.96,645.456 349.163,674.844 389.927,674.844 Z M389.927,656.358 C363.383,656.358 344.897,637.872 344.897,590.709 C344.897,543.546 362.672,524.349 389.927,524.349 C417.893,524.349 434.957,543.546 434.957,590.472 C434.957,637.872 417.419,656.358 389.927,656.358 Z M550.139,674.844 C586.874,674.844 607.493,652.092 607.493,619.623 L607.493,508.707 L584.741,508.707 L584.741,617.964 C584.741,643.323 573.602,655.884 550.139,655.884 C526.913,655.884 515.774,643.323 515.774,617.964 L515.774,508.707 L493.259,508.707 L493.259,619.623 C493.259,652.092 512.93,674.844 550.139,674.844 Z M691.628,672 C726.941,672 768.416,656.121 768.416,589.524 C768.416,521.742 728.363,508.707 686.651,508.707 L652.523,508.707 L652.523,672 L691.628,672 Z M693.287,654.225 L675.038,654.225 L675.038,526.719 L691.628,526.719 C717.698,526.719 744.479,534.303 744.479,589.524 C744.479,643.323 718.883,654.225 693.287,654.225 Z" id="path-1"></path>
    </defs>
    <g id="Page-1" stroke="none" stroke-width="1" fill="none" fill-rule="evenodd">
        <g id="AvenCloudLogo" fill-rule="nonzero">
            <g id="AvenLogoPlain" transform="translate(0.000000, 251.000000)" fill="#0E2B49">
                <polygon id="Combined-Shape-path" points="654.891441 0 598.836585 0 580.151635 37.2 507.280325 37.2 488.595373 74.4 561.466684 74.4 542.826391 111.599796 469.910421 111.6 451.22547 148.8 524.09678 148.8 505.411828 186 561.466684 186"></polygon>
                <polygon id="Combined-Shape-path" points="404.69833 0 312.521921 186 367.827766 186 460.004175 0"></polygon>
                <polygon id="Combined-Shape-path" points="186.98643 0 131.680585 0 223.856994 186 279.162839 186"></polygon>
                <polygon id="Combined-Shape-path" points="294.964509 93 331.835073 19.3018868 258.093946 19.3018868"></polygon>
                <polygon id="Combined-Shape-path" points="730.388309 93 767.258873 19.3018868 693.517745 19.3018868"></polygon>
                <polygon id="Combined-Shape-path" points="672.448852 93 635.578288 166.698113 709.319415 166.698113"></polygon>
                <polygon id="Combined-Shape-path" points="110.611691 93 73.7411273 166.698113 147.482255 166.698113"></polygon>
                <polygon id="Combined-Shape-path" points="0 0 2.11580936e-14 186 93.0542797 0"></polygon>
                <polygon id="Combined-Shape-path" transform="translate(794.472860, 93.000000) rotate(180.000000) translate(-794.472860, -93.000000) " points="747.94572 0 747.94572 186 841 2.58126854e-15"></polygon>
            </g>
            <rect id="Rectangle" fill="#0E2B49" x="0" y="486" width="841" height="212"></rect>
            <rect id="Rectangle" fill="#0E2B49" x="0" y="0" width="841" height="212"></rect>
            <g id="CLOUD">
                <use fill="#000000" xlink:href="#path-1"></use>
                <use fill="#FFFFFF" xlink:href="#path-1"></use>
            </g>
        </g>
    </g>
</svg>