<?xml version="1.0" standalone="no"?>
<!DOCTYPE svg PUBLIC "-//W3C//DTD SVG 20010904//EN"
 "http://www.w3.org/TR/2001/REC-SVG-20010904/DTD/svg10.dtd">
<svg version="1.0" xmlns="http://www.w3.org/2000/svg"
 width="1437.000000pt" height="1437.000000pt" viewBox="0 0 1437.000000 1437.000000"
 preserveAspectRatio="xMidYMid meet">
<metadata>
Created by potrace 1.11, written by Peter Selinger 2001-2013
</metadata>
<g transform="translate(0.000000,1437.000000) scale(0.100000,-0.100000)"
fill="#000000" stroke="none">
<path d="M0 11345 l0 -1815 7185 0 7185 0 0 1815 0 1815 -7185 0 -7185 0 0
-1815z"/>
<path d="M0 7283 c0 -872 2 -1584 4 -1582 2 2 360 716 795 1587 l791 1582
-795 0 -795 0 0 -1587z"/>
<path d="M2314 8743 c35 -71 147 -297 249 -503 102 -206 346 -699 542 -1095
196 -396 438 -885 538 -1087 l182 -368 473 0 472 0 -44 88 c-24 48 -120 242
-214 432 -93 190 -330 669 -527 1065 -196 396 -454 917 -573 1158 l-216 437
-473 0 -473 0 64 -127z"/>
<path d="M6688 8413 c-482 -972 -848 -1714 -848 -1718 0 -2 -16 -31 -35 -64
-19 -34 -34 -64 -34 -66 0 -5 -271 -556 -387 -787 l-44 -88 472 0 473 0 175
353 c95 193 340 687 543 1097 203 410 437 882 519 1050 83 168 193 389 244
493 l94 187 -473 0 -472 0 -227 -457z"/>
<path d="M10072 8553 l-159 -318 -614 -1 c-338 -1 -619 -2 -624 -3 -6 -1 -55
-90 -109 -198 -54 -109 -124 -250 -156 -313 -32 -63 -57 -116 -56 -118 2 -1
281 -3 620 -3 339 0 616 -3 616 -7 -1 -4 -72 -146 -158 -317 l-157 -310 -619
-2 c-341 -2 -623 -6 -627 -10 -13 -13 -309 -605 -309 -617 0 -8 172 -11 615
-11 338 0 615 -2 615 -4 0 -3 -70 -144 -155 -313 -85 -170 -155 -311 -155
-313 0 -3 215 -5 478 -5 l477 0 131 263 c72 144 181 362 243 484 61 123 112
226 112 230 1 5 4 13 9 18 4 6 254 499 554 1098 l547 1087 -480 0 -479 0 -160
-317z"/>
<path d="M13572 7275 l-792 -1585 795 0 795 0 0 1585 c0 872 -1 1585 -3 1585
-1 0 -359 -713 -795 -1585z"/>
<path d="M4474 8413 c35 -71 158 -317 274 -548 116 -231 228 -455 248 -497 20
-43 40 -78 43 -78 5 0 94 174 366 720 48 96 89 178 91 182 2 3 42 83 89 177
l85 171 -630 0 -629 0 63 -127z"/>
<path d="M11871 8498 c12 -24 117 -234 234 -468 117 -234 248 -496 291 -582
43 -87 81 -158 85 -158 3 0 16 21 28 48 12 26 55 112 95 192 40 80 94 186 119
237 25 50 48 96 51 102 4 6 59 115 122 243 63 127 118 237 122 242 4 6 21 40
37 76 16 36 35 72 42 81 7 8 13 19 13 22 0 4 -283 7 -630 7 l-630 0 21 -42z"/>
<path d="M1880 7267 c0 -10 -7 -29 -16 -42 -9 -14 -38 -69 -63 -123 -26 -53
-54 -110 -63 -127 -9 -16 -120 -238 -247 -492 l-231 -463 630 0 c596 0 629 1
622 18 -7 16 -421 842 -441 879 -5 10 -12 25 -15 33 -3 8 -10 22 -15 30 -5 8
-38 71 -72 140 -34 69 -68 134 -75 145 -13 17 -14 18 -14 2z"/>
<path d="M11172 6645 l-312 -625 630 0 c347 0 630 1 630 3 -1 1 -99 198 -220
437 -120 239 -260 519 -311 623 -51 103 -96 187 -99 187 -3 0 -146 -281 -318
-625z"/>
<path d="M0 3035 l0 -1815 7185 0 7185 0 0 1815 0 1815 -7185 0 -7185 0 0
-1815z"/>
</g>
</svg>
